<?xml version="1.0" encoding="UTF-8" standalone="no"?>
<!-- Generator: Adobe Illustrator 19.0.0, SVG Export Plug-In . SVG Version: 6.00 Build 0)  -->

<svg
   xmlns:dc="http://purl.org/dc/elements/1.1/"
   xmlns:cc="http://creativecommons.org/ns#"
   xmlns:rdf="http://www.w3.org/1999/02/22-rdf-syntax-ns#"
   xmlns:svg="http://www.w3.org/2000/svg"
   xmlns="http://www.w3.org/2000/svg"
   xmlns:sodipodi="http://sodipodi.sourceforge.net/DTD/sodipodi-0.dtd"
   xmlns:inkscape="http://www.inkscape.org/namespaces/inkscape"
   version="1.1"
   id="Layer_1"
   x="0px"
   y="0px"
   viewBox="0 0 504.123 504.123"
   style="enable-background:new 0 0 504.123 504.123;"
   xml:space="preserve"
   inkscape:version="0.91 r13725"
   sodipodi:docname="van.svg"><metadata
     id="metadata283"><rdf:RDF><cc:Work
         rdf:about=""><dc:format>image/svg+xml</dc:format><dc:type
           rdf:resource="http://purl.org/dc/dcmitype/StillImage" /></cc:Work></rdf:RDF></metadata><defs
     id="defs281" /><sodipodi:namedview
     pagecolor="#ffffff"
     bordercolor="#666666"
     borderopacity="1"
     objecttolerance="10"
     gridtolerance="10"
     guidetolerance="10"
     inkscape:pageopacity="0"
     inkscape:pageshadow="2"
     inkscape:window-width="1920"
     inkscape:window-height="1028"
     id="namedview279"
     showgrid="false"
     inkscape:zoom="0.46813973"
     inkscape:cx="96.828571"
     inkscape:cy="212.12365"
     inkscape:window-x="0"
     inkscape:window-y="24"
     inkscape:window-maximized="1"
     inkscape:current-layer="Layer_1" /><g
     id="g9"><path
       style="fill:#ABD0D6;"
       d="M193.843,111.623c0,1.237-1.008,2.245-2.245,2.245l0,0c-1.245,0-2.245-1.008-2.245-2.245V74.877   c0-1.229,1-2.237,2.245-2.237l0,0c1.237,0,2.245,1.008,2.245,2.245V111.623z"
       id="path11" /><path
       style="fill:#ABD0D6;"
       d="M125.377,43.173c-1.237,0-2.237,0.992-2.237,2.237l0,0c0,1.237,1.008,2.237,2.237,2.237   l36.746,0.008c1.237-0.008,2.229-1.008,2.245-2.245l0,0c-0.016-1.237-1.008-2.237-2.245-2.245L125.377,43.173z"
       id="path13" /></g><path
     style="fill:#7DA4AD;"
     d="M233.74,142.903c0.063-1.016-0.323-2.009-1.048-2.733L96.839,4.316  c-0.733-0.733-1.717-1.111-2.741-1.048c-1.008,0.055-1.961,0.544-2.607,1.347c-31.736,39.881-28.459,97.178,7.633,133.262  c36.092,36.092,93.381,39.369,133.262,7.625C233.188,144.872,233.677,143.927,233.74,142.903z"
     id="path15" /><path
     style="fill:#527275;"
     d="M232.692,140.169L96.839,4.316c-0.733-0.733-1.717-1.111-2.741-1.048  c-1.008,0.055-1.961,0.544-2.607,1.347c-3.56,4.474-6.664,9.184-9.342,14.052l136.184,136.184c4.86-2.686,9.57-5.782,14.045-9.358  c0.803-0.63,1.292-1.575,1.355-2.599C233.803,141.886,233.417,140.894,232.692,140.169z"
     id="path19" /><path
     style="fill:#EA3C13;"
     d="M198.199,73.664c-2.276,2.269-5.963,2.269-8.239,0L163.352,47.04c-2.284-2.269-2.284-5.955,0-8.231  l0,0c2.276-2.276,5.955-2.276,8.231,0l26.616,26.616C200.476,67.694,200.476,71.388,198.199,73.664L198.199,73.664z"
     id="path25" /><path
     style="fill:#EA3C13;"
     d="M209.14,62.731c-2.284,2.269-5.971,2.269-8.247,0l-26.616-26.624c-2.276-2.269-2.276-5.963,0-8.239  l0,0c2.276-2.261,5.963-2.261,8.231,0l26.632,26.624C211.409,56.768,211.409,60.455,209.14,62.731L209.14,62.731z"
     id="path29" /><circle
     style="fill:#EA3C13;"
     cx="202.279"
     cy="34.768"
     r="6.16"
     id="circle33" /><path
     style="fill:#88B1B7;"
     d="M117.398,222.515v-52.578c0-8.917-7.207-16.132-16.124-16.132c-8.909,0-16.14,7.215-16.14,16.132  v52.578H117.398z"
     id="path55" /><circle
     style="fill:#ABD0D6;"
     cx="101.274"
     cy="140.658"
     r="23.001"
     id="circle59" /><path
     id="SVGCleanerId_0"
     style="fill:#99C4C6;"
     d="M117.539,124.392c8.988,8.988,8.988,23.544,0,32.532  c-8.98,8.98-23.536,8.988-32.524,0" /><circle
     style="fill:#ABD0D6;"
     cx="101.274"
     cy="140.658"
     r="23.001"
     id="circle62" /><path
     style="fill:#2B4649;"
     d="M143.628,219.159c0,1.851-1.504,3.363-3.371,3.363H62.291c-1.851,0-3.363-1.505-3.363-3.363l0,0  c0-1.851,1.504-3.363,3.363-3.363h77.966C142.123,215.796,143.628,217.3,143.628,219.159L143.628,219.159z"
     id="path73" /><path
     style="fill:#EA3C13;"
     d="M383.031,265.46c0,9.437-7.664,17.093-17.109,17.093H38.88c-9.444,0-17.101-7.656-17.101-17.093  v-27.79c0-9.444,7.656-17.101,17.101-17.101h327.05c9.444,0,17.109,7.656,17.109,17.101v27.79H383.031z"
     id="path75" /><path
     style="fill:#AA2102;"
     d="M500.035,443.596c0,6.727-5.451,12.178-12.178,12.178H18.306c-6.727,0-12.186-5.451-12.186-12.178  v-79.935c0-6.727,5.451-12.178,12.186-12.178h461.383c6.727,0,12.186,5.443,12.186,12.178L500.035,443.596z"
     id="path79" /><path
     style="fill:#6E7577;"
     d="M504.123,459.854c0,4.506-3.655,8.168-8.16,8.168H8.16c-4.506,0-8.16-3.663-8.16-8.168v-5.096  c0-4.513,3.655-8.168,8.16-8.168h487.802c4.506,0,8.16,3.655,8.16,8.168V459.854z"
     id="path81" /><path
     d="M50.373,453.293c0-27.884,22.623-50.507,50.523-50.507c27.892,0,50.507,22.623,50.507,50.507"
     id="path83" /><circle
     style="fill:#203547;"
     cx="100.88"
     cy="455.278"
     r="45.584"
     id="circle87" /><circle
     style="fill:#6E7577;"
     cx="100.888"
     cy="455.278"
     r="28.672"
     id="circle91" /><circle
     style="fill:#E7EFF2;"
     cx="100.888"
     cy="455.278"
     r="11.65"
     id="circle101" /><path
     d="M349.964,453.293c0-27.884,22.623-50.507,50.523-50.507c27.884,0,50.515,22.623,50.515,50.507"
     id="path137" /><circle
     style="fill:#203547;"
     cx="400.463"
     cy="455.278"
     r="45.584"
     id="circle141" /><circle
     style="fill:#6E7577;"
     cx="400.463"
     cy="455.278"
     r="28.672"
     id="circle145" /><circle
     style="fill:#E7EFF2;"
     cx="400.463"
     cy="455.278"
     r="11.658"
     id="circle155" /><g
     id="g191"><path
       style="fill:#C63205;"
       d="M450.04,364.953c0,9.019-7.318,16.329-16.329,16.329H31.634c-9.019,0-16.321-7.318-16.321-16.329   V253.715c0-9.019,7.31-16.329,16.321-16.329h353.091c9.019,0,16.329,7.318,16.329,16.329L450.04,364.953z"
       id="path193" /><path
       style="fill:#C63205;"
       d="M472.489,371.578c0,9.027-7.326,16.329-16.329,16.329h-43.882c-9.019,0-16.321-7.31-16.321-16.329   v-10.705c0-9.027,7.31-16.329,16.321-16.329h43.882c9.011,0,16.329,7.31,16.329,16.329V371.578z"
       id="path195" /></g><path
     style="fill:#81b6c9;fill-opacity:1"
     d="M440.604,343.536l-37.675-85.591H285.294c-5.018,0-9.074,4.072-9.074,9.066v68.001  c0,5.002,4.064,9.066,9.074,9.066H437.91C438.863,344.079,439.737,343.811,440.604,343.536z"
     id="path201" /><path
     style="fill:#C63205;"
     d="M406.552,349.774c0.662,2.544-0.874,5.136-3.419,5.79l0,0c-2.552,0.662-5.136-0.866-5.797-3.419  l-27.664-107.394c-0.646-2.544,0.874-5.144,3.419-5.79l0,0c2.56-0.67,5.151,0.859,5.805,3.419L406.552,349.774z"
     id="path213" /><path
     style="fill:#FFA300;"
     d="M496.64,418.359c0,3.765-3.048,6.806-6.806,6.806l0,0c-3.749,0-6.798-3.048-6.798-6.806v-33.343  c0-3.757,3.056-6.798,6.798-6.798l0,0c3.765,0,6.806,3.048,6.806,6.798V418.359z"
     id="path231" /><path
     style="fill:#C63205;"
     d="M214.859,343.843c0,3.757-3.064,6.798-6.814,6.798H44.757c-3.749,0-6.814-3.048-6.814-6.798v-86.174  c0-3.773,3.072-6.814,6.814-6.814h163.289c3.757,0,6.814,3.041,6.814,6.814L214.859,343.843L214.859,343.843z"
     id="path235" /><g
     id="g249" /><g
     id="g251" /><g
     id="g253" /><g
     id="g255" /><g
     id="g257" /><g
     id="g259" /><g
     id="g261" /><g
     id="g263" /><g
     id="g265" /><g
     id="g267" /><g
     id="g269" /><g
     id="g271" /><g
     id="g273" /><g
     id="g275" /><g
     id="g277" /></svg>