<svg xmlns="http://www.w3.org/2000/svg" viewBox="0 0 35 35">
<path d="M0 0v6.726h35V0zm32.879 4.602H2.122V2.125H32.88v2.477zM0 9h6.827v5.078H0zM9.39 9h6.829v5.078H9.39zM18.783 9h6.827v5.078h-6.827zM28.173 9H35v5.078h-6.827zM0 15.973h6.827v5.079H0zM9.39 15.973h6.829v5.079H9.39zM18.783 15.973h6.827v5.079h-6.827zM28.173 15.973H35v5.079h-6.827zM0 22.946h6.827v5.078H0zM9.39 22.946h6.829v5.078H9.39zM18.783 22.946h6.827v5.078h-6.827zM28.173 22.946H35v5.078h-6.827zM0 29.921h6.827V35H0zM9.39 29.921h6.829V35H9.39zM18.783 29.921h6.827V35h-6.827z"/>
</svg>